<svg width="20" height="20" viewBox="0 0 20 20" fill="none" xmlns="http://www.w3.org/2000/svg">
<path d="M6.87735 16.2794C6.12079 16.7358 5.18742 16.0586 5.38654 15.1978L6.07249 12.2324C6.15596 11.8715 6.03314 11.4941 5.75328 11.2515L3.45148 9.25586C2.78395 8.67713 3.1399 7.58043 4.02006 7.50403L7.06638 7.23959C7.43556 7.20755 7.75675 6.97397 7.90101 6.63264L9.07873 3.84608C9.42287 3.03181 10.5768 3.03181 10.9209 3.84608L12.0987 6.63264C12.2429 6.97397 12.5641 7.20755 12.9333 7.23959L15.9796 7.50403C16.8598 7.58043 17.2157 8.67713 16.5482 9.25586L14.2464 11.2515C13.9665 11.4941 13.8437 11.8715 13.9272 12.2324L14.6131 15.1978C14.8123 16.0586 13.8789 16.7358 13.1223 16.2794L10.5164 14.7074C10.1987 14.5158 9.80099 14.5158 9.4833 14.7074L6.87735 16.2794Z" fill="#FF0000"/>
</svg>
