<svg width="46" height="24" viewBox="0 0 46 24" fill="none" xmlns="http://www.w3.org/2000/svg">
<path d="M36.0498 0.524969L32.7684 13.7741L29.4778 0.524969H19.9734V5.41745C18.8186 1.1361 14.5818 0.0623055 10.796 0.00130653C6.1801 -0.0585403 1.06557 1.92677 0.888171 7.98511H7.27234C7.27234 6.15633 8.9594 5.109 10.5525 5.13548C12.5086 5.11936 13.4084 5.94802 13.4536 7.23818C13.3864 8.358 12.7208 9.13717 10.5688 9.13717H8.4214V13.5336H10.3705C11.4778 13.5336 13.0188 14.1321 13.0791 15.6973C13.1533 17.5629 11.8465 18.3824 10.2383 18.3985C7.36742 18.2926 6.62651 16.1036 6.62651 14.2207H0C0.0278278 15.489 -0.013914 23.7559 10.3717 23.6949C15.3471 23.7398 18.9682 21.6636 19.9897 18.8013V23.1885H26.3808V8.89432L29.9149 23.1885H35.6254L39.1723 8.91043V23.2012H45.6933V0.524969H36.0498ZM19.9943 13.7431C19.1803 12.072 18.0348 11.3411 17.3901 11.1098C18.7432 10.5125 19.4517 9.70225 19.9943 8.08754V13.7431Z" fill="#FF0000"/>
</svg>
